<svg xmlns="http://www.w3.org/2000/svg" version="1.1" xmlns:xlink="http://www.w3.org/1999/xlink" xmlns:svgjs="http://svgjs.dev/svgjs" width="1500" height="935" viewBox="0 0 1500 935"><g transform="matrix(1,0,0,1,-0.9090909090909918,0.3785425101215196)"><svg viewBox="0 0 396 247" data-background-color="#ffffff" preserveAspectRatio="xMidYMid meet" height="935" width="1500" xmlns="http://www.w3.org/2000/svg" xmlns:xlink="http://www.w3.org/1999/xlink"><g id="tight-bounds" transform="matrix(1,0,0,1,0.2400000000000091,-0.09999999999999432)"><svg viewBox="0 0 395.52 247.2" height="247.2" width="395.52"><g><svg></svg></g><g><svg viewBox="0 0 395.52 247.2" height="247.2" width="395.52"><g transform="matrix(1,0,0,1,75.54432,48.31262137021568)"><svg viewBox="0 0 244.43135999999998 150.57475725956863" height="150.57475725956863" width="244.43135999999998"><g><svg viewBox="0 0 244.43135999999998 150.57475725956863" height="150.57475725956863" width="244.43135999999998"><g><svg viewBox="0 0 244.43135999999998 150.57475725956863" height="150.57475725956863" width="244.43135999999998"><g><svg viewBox="0 0 244.43135999999998 150.57475725956863" height="150.57475725956863" width="244.43135999999998"><g id="textblocktransform"><svg viewBox="0 0 244.43135999999998 150.57475725956863" height="150.57475725956863" width="244.43135999999998" id="textblock"><g><svg viewBox="0 0 244.43135999999998 81.21282906394809" height="81.21282906394809" width="244.43135999999998"><g transform="matrix(1,0,0,1,0,0)"><svg width="244.43135999999998" viewBox="1.49 -35.01 105.37 35.01" height="81.21282906394809" data-palette-color="#ffffff"><path d="M14.99-35.01L20-35.01 33.5 0 28.49 0 25.39-8.06 9.59-8.06 6.49 0 1.49 0 14.99-35.01ZM17.5-28.49L11.5-13.06 23.46-13.06 17.5-28.49ZM69.5-30L69.5-5Q69.5-3.98 69.11-3.06 68.72-2.15 68.04-1.46 67.36-0.78 66.44-0.39 65.52 0 64.5 0L64.5 0 44.5 0Q43.48 0 42.56-0.39 41.65-0.78 40.96-1.46 40.28-2.15 39.89-3.06 39.5-3.98 39.5-5L39.5-5 39.5-30Q39.5-31.03 39.89-31.95 40.28-32.86 40.96-33.53 41.65-34.2 42.56-34.61 43.48-35.01 44.5-35.01L44.5-35.01 64.5-35.01Q65.52-35.01 66.44-34.61 67.36-34.2 68.04-33.53 68.72-32.86 69.11-31.95 69.5-31.03 69.5-30L69.5-30ZM64.5-30L44.5-30 44.5-5 64.5-5 64.5-30ZM75.75-35.01L81.78-35.01 91.13-21.9 100.53-35.01 106.59-35.01 94.18-17.65 106.86 0 100.8 0 91.13-13.45 81.54 0 75.48 0 88.15-17.65 75.75-35.01Z" opacity="1" transform="matrix(1,0,0,1,0,0)" fill="#ffffff" class="wordmark-text-0" data-fill-palette-color="primary" id="text-0"></path></svg></g></svg></g><g transform="matrix(1,0,0,1,0,100.3852288980487)"><svg viewBox="0 0 244.43135999999998 50.18952836151992" height="50.18952836151992" width="244.43135999999998"><g transform="matrix(1,0,0,1,0,0)"><svg width="244.43135999999998" viewBox="4.49 -35.01 170.51 35.01" height="50.18952836151992" data-palette-color="#ffffff"><path d="M24.05 0L22.56 0 9.5-25.66 9.5 0 4.49 0 4.49-35.01 9.96-35.01 23.29-8.64 36.65-35.01 42.09-35.01 42.09 0 37.11 0 37.11-25.66 24.05 0ZM156.49-35.01L161.49-35.01 175 0 169.99 0 166.89-8.06 151.09-8.06 147.99 0 142.99 0 156.49-35.01ZM159-28.49L153-13.06 164.96-13.06 159-28.49Z" opacity="1" transform="matrix(1,0,0,1,0,0)" fill="#ffffff" class="slogan-text-1" data-fill-palette-color="secondary" id="text-1"></path></svg></g></svg></g></svg></g></svg></g></svg></g></svg></g></svg></g><g><path d="M245.816 0c68.262 0 123.6 55.338 123.6 123.6 0 68.262-55.338 123.6-123.6 123.6-35.398 0-67.32-14.88-89.853-38.726h5.108c21.699 21.667 51.657 35.064 84.745 35.064 66.24 0 119.938-53.698 119.938-119.938 0-66.24-53.698-119.938-119.938-119.938-33.087 0-63.045 13.398-84.745 35.064l-5.108 0c22.533-23.846 54.455-38.726 89.853-38.726z" fill="#124948" stroke="transparent" data-fill-palette-color="tertiary"></path></g></svg></g><defs></defs></svg><rect width="395.52" height="247.2" fill="none" stroke="none" visibility="hidden"></rect></g></svg></g></svg>